<?xml version="1.0" standalone="no"?><!DOCTYPE svg PUBLIC "-//W3C//DTD SVG 1.1//EN" "http://www.w3.org/Graphics/SVG/1.1/DTD/svg11.dtd"><svg t="1639203259315" class="icon" viewBox="0 0 1024 1024" version="1.1" xmlns="http://www.w3.org/2000/svg" p-id="11684" xmlns:xlink="http://www.w3.org/1999/xlink" width="16" height="16"><defs><style type="text/css"></style></defs><path d="M814.6944 808.2432A459.7248 459.7248 0 0 0 972.8 460.8c0-254.4896-206.3104-460.8-460.8-460.8S51.2 206.3104 51.2 460.8a459.776 459.776 0 0 0 160.768 349.7728c0.1792 0 100.1728 36.992 300.032 111.0272l302.6944-113.3568z" fill="#00C4B3" p-id="11685"></path><path d="M512 0c254.4896 0 460.8 206.3104 460.8 460.8 0 135.0656-58.112 256.5888-150.7072 340.864l-7.3984 6.5792L512 921.6 211.968 810.5728A459.776 459.776 0 0 1 51.2 460.8C51.2 206.3104 257.5104 0 512 0z m0 25.6C271.6416 25.6 76.8 220.4416 76.8 460.8c0 125.184 53.12 241.664 144.1792 323.584l4.2752 3.7632 286.6688 106.112L801.28 785.8944l4.352-3.8912a433.8688 433.8688 0 0 0 141.44-310.6048L947.2 460.8c0-240.3584-194.8416-435.2-435.2-435.2z" fill="#007E73" p-id="11686"></path><path d="M512 1024L204.8 793.6h614.4z" fill="#007E73" p-id="11687"></path><path d="M785.7408 430.336c-9.728 6.1952-16.0768 16.384-17.408 27.8528-13.568 118.1952-123.136 210.3552-256.5632 210.3552-132.9408 0-242.2016-91.648-256.384-209.408a38.272 38.272 0 0 0-17.1008-27.4688c-1.3056-0.8448-2.6368-1.6896-3.8912-2.5856a68.096 68.096 0 0 1-29.44-55.3216c-0.384-26.7008 0.0512-62.464 0.4096-90.0096a76.6464 76.6464 0 0 1 41.3952-67.072c123.904-64.128 403.7888-64.9728 529.4336-0.256a76.7488 76.7488 0 0 1 41.6512 68.1728v87.7312c0 23.04-11.4688 44.6208-30.7968 57.1648-0.4608 0.3072-0.896 0.5376-1.3056 0.8448z m-370.2016 150.8352c13.2096 22.3232 54.656 39.424 96.256 39.424 41.5744 0 82.1248-16.128 95.2576-38.4l-0.4096-126.0032c-8.8832-43.776-48.6656-75.648-94.8736-75.648-46.1824 0-87.424 32.2048-96.256 76.0832v124.544z m344.8832-320.256c-96.128-55.8848-377.5232-59.8272-496.3328-1.2032a19.2256 19.2256 0 0 0-10.6752 16.9728c-0.1792 19.6864-0.5376 55.296 0.896 69.376 90.9056-57.1904 421.9904-56.3712 515.6352 0v-68.608a18.944 18.944 0 0 0-9.5232-16.5632z m-248.6528 215.6288c26.368 0 47.8208 23.6288 47.8208 52.864 0 29.2096-21.4016 52.864-47.8208 52.864-26.368 0-47.8208-23.6544-47.8208-52.864-0.0512-29.2352 21.4272-52.864 47.8208-52.864z" fill="#FFFFFF" p-id="11688"></path></svg>