<?xml version="1.0" standalone="no"?><!DOCTYPE svg PUBLIC "-//W3C//DTD SVG 1.1//EN" "http://www.w3.org/Graphics/SVG/1.1/DTD/svg11.dtd"><svg t="1639189435926" class="icon" viewBox="0 0 1024 1024" version="1.1" xmlns="http://www.w3.org/2000/svg" p-id="11872" width="16" height="16" xmlns:xlink="http://www.w3.org/1999/xlink"><defs><style type="text/css"></style></defs><path d="M814.6944 808.2432A459.7248 459.7248 0 0 0 972.8 460.8c0-254.4896-206.3104-460.8-460.8-460.8S51.2 206.3104 51.2 460.8a459.776 459.776 0 0 0 160.768 349.7728c0.1792 0 100.1728 36.992 300.032 111.0272l302.6944-113.3568z" fill="#00C4B3" p-id="11873"></path><path d="M512 0c254.4896 0 460.8 206.3104 460.8 460.8 0 135.0656-58.112 256.5888-150.7072 340.864l-7.3984 6.5792L512 921.6 211.968 810.5728A459.776 459.776 0 0 1 51.2 460.8C51.2 206.3104 257.5104 0 512 0z m0 25.6C271.6416 25.6 76.8 220.4416 76.8 460.8c0 125.184 53.12 241.664 144.1792 323.584l4.2752 3.7632 286.6688 106.112L801.28 785.8944l4.352-3.8912a433.8688 433.8688 0 0 0 141.44-310.6048L947.2 460.8c0-240.3584-194.8416-435.2-435.2-435.2z" fill="#007E73" p-id="11874"></path><path d="M512 1024L204.8 793.6h614.4z" fill="#007E73" p-id="11875"></path><path d="M776.192 216.448a76.7488 76.7488 0 0 1 41.6512 68.1472v87.7312c0 19.8656-8.5248 38.656-23.2448 51.4816a197.376 197.376 0 0 0-172.8768-101.9904 196.992 196.992 0 0 0-147.3536 65.9968c-29.5168 11.904-52.5056 37.376-58.8288 68.8128v124.544c5.376 9.0624 15.36 17.28 28.16 23.808a198.5536 198.5536 0 0 0 47.8208 62.8224c-123.648-8.704-222.6944-96.9216-236.1344-208.64a38.272 38.272 0 0 0-17.1008-27.4944c-1.3056-0.8448-2.6368-1.6896-3.8912-2.5856a68.096 68.096 0 0 1-29.44-55.3216c-0.384-26.7008 0.0512-62.464 0.4096-90.0096a76.6464 76.6464 0 0 1 41.3952-67.072c123.904-64.128 403.7888-64.9728 529.4336-0.256z m-512.1024 43.264a19.2256 19.2256 0 0 0-10.6752 16.9728c-0.1792 19.6864-0.5376 55.296 0.896 69.376 90.9056-57.1904 421.9904-56.3712 515.6352 0v-68.608a18.944 18.944 0 0 0-9.5232-16.5632c-96.128-55.8592-377.5232-59.8016-496.3328-1.1776z" fill="#FFFFFF" p-id="11876"></path><path d="M643.6608 365.7216a175.5392 175.5392 0 1 1 0 351.0784 175.5392 175.5392 0 0 1 0-351.0784z m0 43.8784a131.6608 131.6608 0 1 0 0 263.3216 131.6608 131.6608 0 0 0 0-263.3216z m-51.456 49.152l52.992 53.0432 53.0432-53.0176a12.8 12.8 0 0 1 18.0992 0l12.928 12.928a12.8 12.8 0 0 1 0 18.0992l-53.0432 52.992 53.0432 53.0432a12.8 12.8 0 0 1 0 18.0992l-12.928 12.928a12.8 12.8 0 0 1-18.0992 0l-53.0432-53.0176-52.992 52.992a12.8 12.8 0 0 1-18.0992 0l-12.928-12.9024a12.8 12.8 0 0 1 0-18.0992l52.992-53.0176-52.992-53.0176a12.8 12.8 0 0 1 0-18.0992l12.928-12.928a12.8 12.8 0 0 1 18.0992 0z" fill="#EA2A2A" p-id="11877"></path></svg>