<?xml version="1.0" standalone="no"?><!DOCTYPE svg PUBLIC "-//W3C//DTD SVG 1.1//EN" "http://www.w3.org/Graphics/SVG/1.1/DTD/svg11.dtd"><svg t="1639203246253" class="icon" viewBox="0 0 1024 1024" version="1.1" xmlns="http://www.w3.org/2000/svg" p-id="11422" xmlns:xlink="http://www.w3.org/1999/xlink" width="16" height="16"><defs><style type="text/css"></style></defs><path d="M814.6944 808.2432A459.7248 459.7248 0 0 0 972.8 460.8c0-254.4896-206.3104-460.8-460.8-460.8S51.2 206.3104 51.2 460.8a459.776 459.776 0 0 0 160.768 349.7728c0.1792 0 100.1728 36.992 300.032 111.0272l302.6944-113.3568z" fill="#00C4B3" p-id="11423"></path><path d="M512 0c254.4896 0 460.8 206.3104 460.8 460.8 0 135.0656-58.112 256.5888-150.7072 340.864l-7.3984 6.5792L512 921.6 211.968 810.5728A459.776 459.776 0 0 1 51.2 460.8C51.2 206.3104 257.5104 0 512 0z m0 25.6C271.6416 25.6 76.8 220.4416 76.8 460.8c0 125.184 53.12 241.664 144.1792 323.584l4.2752 3.7632 286.6688 106.112L801.28 785.8944l4.352-3.8912a433.8688 433.8688 0 0 0 141.44-310.6048L947.2 460.8c0-240.3584-194.8416-435.2-435.2-435.2z" fill="#007E73" p-id="11424"></path><path d="M512 1024L204.8 793.6h614.4z" fill="#007E73" p-id="11425"></path><path d="M275.0208 398.08l127.9232 55.4496-15.4368 42.88-49.8688-21.6064-27.2128 65.8944v1.4592H204.8v-38.5536h82.688l17.664-42.8544-45.2608-19.84h0.0256l15.104-42.8288z m13.4144-251.8016l393.0112 168.96-8.704 13.2608a197.5808 197.5808 0 0 0-238.7968 129.3824l-222.592-95.8208 77.0816-215.7824zM819.2 384.3584l-18.4064 51.584a197.7344 197.7344 0 0 0-31.4368-47.7952L819.2 384.3584z" fill="#FFFFFF" p-id="11426"></path><path d="M643.6608 365.7216a175.5392 175.5392 0 1 1 0 351.0784 175.5392 175.5392 0 0 1 0-351.0784z m0 43.8784a131.6608 131.6608 0 1 0 0 263.3216 131.6608 131.6608 0 0 0 0-263.3216z m-51.456 49.152l52.992 53.0432 53.0432-53.0176a12.8 12.8 0 0 1 18.0992 0l12.928 12.928a12.8 12.8 0 0 1 0 18.0992l-53.0432 52.992 53.0432 53.0432a12.8 12.8 0 0 1 0 18.0992l-12.928 12.928a12.8 12.8 0 0 1-18.0992 0l-53.0432-53.0176-52.992 52.992a12.8 12.8 0 0 1-18.0992 0l-12.928-12.9024a12.8 12.8 0 0 1 0-18.0992l52.992-53.0176-52.992-53.0176a12.8 12.8 0 0 1 0-18.0992l12.928-12.928a12.8 12.8 0 0 1 18.0992 0z" fill="#EA2A2A" p-id="11427"></path></svg>