<?xml version="1.0" standalone="no"?><!DOCTYPE svg PUBLIC "-//W3C//DTD SVG 1.1//EN" "http://www.w3.org/Graphics/SVG/1.1/DTD/svg11.dtd"><svg t="1639203253939" class="icon" viewBox="0 0 1024 1024" version="1.1" xmlns="http://www.w3.org/2000/svg" p-id="11553" xmlns:xlink="http://www.w3.org/1999/xlink" width="16" height="16"><defs><style type="text/css"></style></defs><path d="M814.6944 808.2432A459.7248 459.7248 0 0 0 972.8 460.8c0-254.4896-206.3104-460.8-460.8-460.8S51.2 206.3104 51.2 460.8a459.776 459.776 0 0 0 160.768 349.7728c0.1792 0 100.1728 36.992 300.032 111.0272l302.6944-113.3568z" fill="#00C4B3" p-id="11554"></path><path d="M512 0c254.4896 0 460.8 206.3104 460.8 460.8 0 135.0656-58.112 256.5888-150.7072 340.864l-7.3984 6.5792L512 921.6 211.968 810.5728A459.776 459.776 0 0 1 51.2 460.8C51.2 206.3104 257.5104 0 512 0z m0 25.6C271.6416 25.6 76.8 220.4416 76.8 460.8c0 125.184 53.12 241.664 144.1792 323.584l4.2752 3.7632 286.6688 106.112L801.28 785.8944l4.352-3.8912a433.8688 433.8688 0 0 0 141.44-310.6048L947.2 460.8c0-240.3584-194.8416-435.2-435.2-435.2z" fill="#007E73" p-id="11555"></path><path d="M512 1024L204.8 793.6h614.4z" fill="#007E73" p-id="11556"></path><path d="M673.024 124.3392c5.9136 0 10.6752 4.7616 10.6752 11.8784 0 6.3488-3.7632 10.8032-8.7552 11.7248l-1.9456 0.1792h-68.9408L573.184 180.1984c99.0208 23.7312 175.6672 104.7552 194.2016 205.7472a196.9408 196.9408 0 0 0-145.664-64.128c-12.5184 0-24.7808 1.1776-36.6592 3.4048a130.7648 130.7648 0 0 0-74.8544-23.5008c-72.4224 0-131.6608 59.2384-131.6608 131.6608 0 39.8592 17.9712 75.776 46.208 99.968a197.4784 197.4784 0 0 0 105.0112 160.768 255.488 255.488 0 0 1-19.5584 0.7424c-145.024 0-261.504-117.6832-261.504-261.4784 0-121.088 80.9984-221.6704 191.5392-252.5184l6.9632-1.8432-30.8992-30.8992h-77.2608c-5.9392 0-10.7008-4.7616-10.7008-11.904 0-6.3232 3.7632-10.7776 8.7552-11.6992l1.9456-0.1792h333.9776z m-233.2672 318.1056l-0.256 0.5632a71.5776 71.5776 0 0 1 62.1056-80.4352 197.8112 197.8112 0 0 0-61.8496 79.872z" fill="#FFFFFF" p-id="11557"></path><path d="M643.6608 365.7216a175.5392 175.5392 0 1 1 0 351.0784 175.5392 175.5392 0 0 1 0-351.0784z m0 43.8784a131.6608 131.6608 0 1 0 0 263.3216 131.6608 131.6608 0 0 0 0-263.3216z m-51.456 49.152l52.992 53.0432 53.0432-53.0176a12.8 12.8 0 0 1 18.0992 0l12.928 12.928a12.8 12.8 0 0 1 0 18.0992l-53.0432 52.992 53.0432 53.0432a12.8 12.8 0 0 1 0 18.0992l-12.928 12.928a12.8 12.8 0 0 1-18.0992 0l-53.0432-53.0176-52.992 52.992a12.8 12.8 0 0 1-18.0992 0l-12.928-12.9024a12.8 12.8 0 0 1 0-18.0992l52.992-53.0176-52.992-53.0176a12.8 12.8 0 0 1 0-18.0992l12.928-12.928a12.8 12.8 0 0 1 18.0992 0z" fill="#EA2A2A" p-id="11558"></path></svg>