<?xml version="1.0" standalone="no"?><!DOCTYPE svg PUBLIC "-//W3C//DTD SVG 1.1//EN" "http://www.w3.org/Graphics/SVG/1.1/DTD/svg11.dtd"><svg t="1642045581779" class="icon" viewBox="0 0 1024 1024" version="1.1" xmlns="http://www.w3.org/2000/svg" p-id="13304" xmlns:xlink="http://www.w3.org/1999/xlink" width="32" height="32"><defs><style type="text/css"></style></defs><path d="M814.6944 808.2432A459.7248 459.7248 0 0 0 972.8 460.8c0-254.4896-206.3104-460.8-460.8-460.8S51.2 206.3104 51.2 460.8a459.776 459.776 0 0 0 160.768 349.7728c0.1792 0 100.1728 36.992 300.032 111.0272l302.6944-113.3568z" fill="#00C4B3" p-id="13305"></path><path d="M512 0c254.4896 0 460.8 206.3104 460.8 460.8 0 135.0656-58.112 256.5888-150.7072 340.864l-7.3984 6.5792L512 921.6 211.968 810.5728A459.776 459.776 0 0 1 51.2 460.8C51.2 206.3104 257.5104 0 512 0z m0 25.6C271.6416 25.6 76.8 220.4416 76.8 460.8c0 125.184 53.12 241.664 144.1792 323.584l4.2752 3.7632 286.6688 106.112L801.28 785.8944l4.352-3.8912a433.8688 433.8688 0 0 0 141.44-310.6048L947.2 460.8c0-240.3584-194.8416-435.2-435.2-435.2z" fill="#007E73" p-id="13306"></path><path d="M512 1024L204.8 793.6h614.4z" fill="#007E73" p-id="13307"></path><path d="M288.4352 190.1824l-77.056 215.7568 343.0912 147.6864 126.976-194.5344L288.4352 190.208zM724.736 435.456l-39.04 109.4912 64.9728 75.3152 68.5568-192-94.464 7.1936z m-47.2064-34.2016l-80.384 123.5456 68.5568 29.5424 48.896-136.8832-37.0688-16.1792v-0.0256z m-417.6128 83.5584l45.2864 19.8144-17.7152 42.88H204.8v38.528h105.6256v-1.4592l27.2128-65.8944 49.8688 21.6064 15.4368-42.8544-127.9232-55.4752-15.104 42.8544z" fill="#FFFFFF" p-id="13308"></path></svg>