<?xml version="1.0" standalone="no"?><!DOCTYPE svg PUBLIC "-//W3C//DTD SVG 1.1//EN" "http://www.w3.org/Graphics/SVG/1.1/DTD/svg11.dtd"><svg t="1642045587708" class="icon" viewBox="0 0 1024 1024" version="1.1" xmlns="http://www.w3.org/2000/svg" p-id="13441" xmlns:xlink="http://www.w3.org/1999/xlink" width="32" height="32"><defs><style type="text/css"></style></defs><path d="M814.6944 808.2432A459.7248 459.7248 0 0 0 972.8 460.8c0-254.4896-206.3104-460.8-460.8-460.8S51.2 206.3104 51.2 460.8a459.776 459.776 0 0 0 160.768 349.7728c0.1792 0 100.1728 36.992 300.032 111.0272l302.6944-113.3568z" fill="#00C4B3" p-id="13442"></path><path d="M512 0c254.4896 0 460.8 206.3104 460.8 460.8 0 135.0656-58.112 256.5888-150.7072 340.864l-7.3984 6.5792L512 921.6 211.968 810.5728A459.776 459.776 0 0 1 51.2 460.8C51.2 206.3104 257.5104 0 512 0z m0 25.6C271.6416 25.6 76.8 220.4416 76.8 460.8c0 125.184 53.12 241.664 144.1792 323.584l4.2752 3.7632 286.6688 106.112L801.28 785.8944l4.352-3.8912a433.8688 433.8688 0 0 0 141.44-310.6048L947.2 460.8c0-240.3584-194.8416-435.2-435.2-435.2z" fill="#007E73" p-id="13443"></path><path d="M512 1024L204.8 793.6h614.4z" fill="#007E73" p-id="13444"></path><path d="M510.1824 694.8608c-145.024 0-261.504-117.6832-261.504-261.4784 0-123.6224 84.4032-225.8432 198.5024-254.3616L416.256 148.1216h-77.2608c-5.9392 0-10.7008-4.7616-10.7008-11.904 0-7.1168 4.7616-11.8784 10.7008-11.8784h333.9776c5.9392 0 10.7008 4.7616 10.7008 11.8784 0 7.1424-4.7616 11.904-10.7008 11.904h-68.9408L573.184 180.1984c114.0992 27.3408 198.5024 130.7392 198.5024 253.184 0 143.7952-116.48 261.4784-261.4784 261.4784z m0-129.8432c72.3968 0 131.6352-59.2384 131.6352-131.6352 0-72.4224-59.2384-131.6608-131.6352-131.6608-72.4224 0-131.6608 59.2384-131.6608 131.6608 0 72.3968 59.2384 131.6352 131.6608 131.6352z m0-60.3392a71.5264 71.5264 0 0 1-71.3216-71.296 71.5264 71.5264 0 0 1 71.3216-71.3216 71.5264 71.5264 0 0 1 71.296 71.3216 71.5264 71.5264 0 0 1-71.296 71.296z m0 118.8608c7.1168 0 11.8784-4.7616 11.8784-11.8784 0-7.1424-4.7616-11.8784-11.8784-11.8784-7.1424 0-11.904 4.736-11.904 11.8784 0 7.1168 4.7616 11.8784 11.904 11.8784z" fill="#FFFFFF" p-id="13445"></path></svg>