<?xml version="1.0" standalone="no"?><!DOCTYPE svg PUBLIC "-//W3C//DTD SVG 1.1//EN" "http://www.w3.org/Graphics/SVG/1.1/DTD/svg11.dtd"><svg t="1639964406035" class="icon" viewBox="0 0 1024 1024" version="1.1" xmlns="http://www.w3.org/2000/svg" p-id="11430" width="16" height="16" xmlns:xlink="http://www.w3.org/1999/xlink"><defs><style type="text/css"></style></defs><path d="M450.706286 120.246857a74.24 74.24 0 0 1 122.806857 0l440.393143 707.657143c28.891429 50.468571-7.168 108.251429-72.192 108.251429H68.022857c-50.468571 0-86.601143-57.782857-57.782857-108.251429z m61.44 588.434286a72.777143 72.777143 0 0 0-54.125715 22.893714 72.704 72.704 0 0 0-22.893714 54.198857c0 21.357714 7.460571 39.277714 22.893714 54.198857 14.921143 14.921143 33.28 22.308571 54.125715 22.308572a73.142857 73.142857 0 0 0 53.76-22.308572 72.045714 72.045714 0 0 0 22.820571-54.125714 72.557714 72.557714 0 0 0-22.820571-54.272 71.606857 71.606857 0 0 0-53.686857-22.893714z m0-403.236572a72.411429 72.411429 0 0 0-55.076572 23.405715c-14.482286 15.872-21.942857 35.328-21.942857 58.148571 0 19.821714 32.841143 167.497143 41.325714 275.017143H548.571429c10.313143-107.446857 40.228571-255.122286 40.228571-275.017143 0-23.405714-7.460571-42.788571-21.357714-58.148571a70.802286 70.802286 0 0 0-55.222857-23.405715z" p-id="11431" fill="#f4ea2a"></path></svg>